<svg width="512" height="512" viewBox="0 0 512 512" fill="none" xmlns="http://www.w3.org/2000/svg">
<path d="M512 185.007V159.596C512 71.5507 440.258 0 352.251 0H159.749C117.42 -4.11874e-05 76.8206 16.8074 46.8682 46.731C16.9158 76.6547 0.0590371 117.248 0 159.596V352.181C0 440.226 71.7424 512 159.749 512H352.251C440.258 512 512 440.226 512 352.181V326.771H440.035V352.181C440.035 400.55 400.599 440.003 352.251 440.003H159.749C136.486 439.945 114.192 430.673 97.7415 414.216C81.2916 397.759 72.024 375.455 71.9652 352.181V159.596C71.9652 111.227 111.401 71.7736 159.749 71.7736H352.251C400.599 71.7736 440.035 111.227 440.035 159.596V185.007H512Z" fill="#698F2B"/>
<path d="M398.816 184.926V159.527C398.816 133.904 377.873 112.961 352.251 112.961H159.749C134.127 112.961 113.406 133.904 113.406 159.527V352.028C113.406 377.65 134.127 398.594 159.749 398.594H352.251C377.873 398.594 398.816 377.65 398.816 352.028V291.649H399.039V219.906H222.134V291.649H326.851V326.628H185.149V184.926H398.816Z" fill="#698F2B"/>
</svg>
