<svg width="439" height="87" viewBox="0 0 439 87" fill="none" xmlns="http://www.w3.org/2000/svg" id="svg-logo">
<path d="M148.418 36.9339H139.05C138.879 35.722 138.529 34.6454 138.002 33.7044C137.474 32.749 136.797 31.9363 135.97 31.2662C135.143 30.596 134.188 30.0827 133.104 29.7262C132.035 29.3698 130.873 29.1915 129.618 29.1915C127.351 29.1915 125.376 29.7548 123.693 30.8812C122.011 31.9933 120.706 33.6188 119.779 35.7576C118.853 37.8821 118.389 40.4629 118.389 43.5C118.389 46.6226 118.853 49.2462 119.779 51.3707C120.721 53.4952 122.032 55.0993 123.715 56.183C125.397 57.2666 127.344 57.8085 129.554 57.8085C130.794 57.8085 131.942 57.6445 132.997 57.3165C134.067 56.9886 135.015 56.5109 135.842 55.8836C136.669 55.2419 137.353 54.4648 137.895 53.5523C138.451 52.6397 138.836 51.5989 139.05 50.4297L148.418 50.4724C148.175 52.4829 147.569 54.422 146.6 56.2899C145.644 58.1435 144.354 59.8047 142.729 61.2733C141.117 62.7277 139.192 63.8826 136.954 64.7381C134.73 65.5794 132.213 66 129.404 66C125.497 66 122.004 65.116 118.924 63.3479C115.858 61.5798 113.434 59.0204 111.652 55.6697C109.884 52.3189 109 48.2624 109 43.5C109 38.7234 109.898 34.6597 111.695 31.3089C113.491 27.9582 115.93 25.4059 119.01 23.6521C122.089 21.884 125.554 21 129.404 21C131.942 21 134.295 21.3565 136.462 22.0694C138.644 22.7823 140.576 23.8232 142.258 25.192C143.941 26.5466 145.309 28.2077 146.365 30.1754C147.434 32.1431 148.118 34.3959 148.418 36.9339Z" fill="black"/>
<path d="M184.103 35.7576C183.804 34.7167 183.383 33.7971 182.841 32.9986C182.3 32.1858 181.637 31.5014 180.852 30.9453C180.082 30.375 179.198 29.9401 178.2 29.6407C177.216 29.3413 176.126 29.1915 174.928 29.1915C172.689 29.1915 170.722 29.7476 169.025 30.8598C167.342 31.972 166.031 33.5903 165.09 35.7148C164.149 37.8251 163.678 40.4059 163.678 43.4572C163.678 46.5086 164.141 49.1036 165.068 51.2424C165.995 53.3812 167.307 55.0138 169.004 56.1402C170.7 57.2524 172.704 57.8085 175.014 57.8085C177.11 57.8085 178.899 57.4377 180.382 56.6963C181.879 55.9406 183.02 54.8783 183.804 53.5095C184.602 52.1407 185.002 50.5223 185.002 48.6545L186.884 48.9325H175.591V41.9601H193.92V47.4781C193.92 51.3279 193.108 54.6359 191.482 57.4021C189.857 60.154 187.618 62.2785 184.766 63.7757C181.915 65.2586 178.649 66 174.971 66C170.864 66 167.257 65.0946 164.149 63.2837C161.04 61.4586 158.616 58.8707 156.877 55.52C155.151 52.1549 154.289 48.1625 154.289 43.5428C154.289 39.9924 154.802 36.827 155.829 34.0466C156.87 31.2519 158.324 28.885 160.192 26.9458C162.06 25.0067 164.234 23.5309 166.715 22.5185C169.196 21.5062 171.884 21 174.778 21C177.259 21 179.569 21.3636 181.708 22.0908C183.847 22.8037 185.743 23.8161 187.397 25.1279C189.065 26.4396 190.427 28.0009 191.482 29.8118C192.537 31.6084 193.215 33.5903 193.514 35.7576H184.103Z" fill="black"/>
<path d="M200.62 65.4011V58.7281L216.212 44.2913C217.538 43.0081 218.65 41.8531 219.548 40.8265C220.461 39.7999 221.152 38.7947 221.623 37.8108C222.094 36.8127 222.329 35.7362 222.329 34.5813C222.329 33.298 222.036 32.193 221.452 31.2662C220.867 30.3251 220.069 29.605 219.056 29.106C218.044 28.5927 216.896 28.336 215.613 28.336C214.273 28.336 213.103 28.6069 212.105 29.1488C211.107 29.6906 210.337 30.4677 209.796 31.48C209.254 32.4924 208.983 33.6972 208.983 35.0946H200.192C200.192 32.2286 200.841 29.7405 202.139 27.6302C203.436 25.52 205.254 23.8874 207.593 22.7324C209.931 21.5775 212.626 21 215.677 21C218.814 21 221.545 21.5561 223.869 22.6683C226.207 23.7662 228.025 25.2918 229.323 27.2452C230.62 29.1987 231.269 31.4373 231.269 33.961C231.269 35.615 230.941 37.2476 230.285 38.8588C229.643 40.4701 228.496 42.2595 226.842 44.2272C225.188 46.1806 222.856 48.5261 219.848 51.2638L213.453 57.5304V57.8298H231.846V65.4011H200.62Z" fill="black"/>
<path d="M257.613 21.5989V65.4011H248.352V30.3893H248.096L238.065 36.6773V28.4644L248.909 21.5989H257.613Z" fill="black"/>
<path d="M282.22 65.4011V21.5989H311.735V29.2343H291.481V39.6716H310.217V47.307H291.481V57.7657H311.821V65.4011H282.22Z" fill="black"/>
<path d="M327.781 21.5989L336.615 36.5276H336.957L345.833 21.5989H356.291L342.924 43.5L356.591 65.4011H345.94L336.957 50.451H336.615L327.632 65.4011H317.023L330.733 43.5L317.28 21.5989H327.781Z" fill="black"/>
<path d="M360.483 29.2343V21.5989H385.101V29.2343H360.483ZM360.483 65.4011V57.7657H385.101V65.4011H360.483ZM377.423 21.5989V65.4011H368.162V21.5989H377.423Z" fill="black"/>
<path d="M391.031 21.5989H402.452L414.514 51.0285H415.028L427.091 21.5989H438.512V65.4011H429.529V36.8912H429.165L417.83 65.1873H411.713L400.377 36.7842H400.014V65.4011H391.031V21.5989Z" fill="black"/>
<path d="M86.8535 31.3701V27.0614C86.8535 12.1323 74.6835 0 59.7543 0H27.0992C19.9186 -6.98381e-06 13.0315 2.84989 7.95052 7.92381C2.86952 12.9977 0.0100148 19.8808 0 27.0614V59.7165C0 74.6457 12.1701 86.8158 27.0992 86.8158H59.7543C74.6835 86.8158 86.8535 74.6457 86.8535 59.7165V55.4079H74.6457V59.7165C74.6457 67.9181 67.9559 74.6079 59.7543 74.6079H27.0992C23.1529 74.5979 19.371 73.0258 16.5805 70.2353C13.79 67.4448 12.2179 63.6629 12.2079 59.7165V27.0614C12.2079 18.8598 18.8976 12.1701 27.0992 12.1701H59.7543C67.9559 12.1701 74.6457 18.8598 74.6457 27.0614V31.3701H86.8535Z" fill="#698F2B"/>
<path d="M67.6535 31.2079V26.8992C67.6535 22.5528 64.1008 19 59.7543 19H27.0992C22.7528 19 19.2378 22.5528 19.2378 26.8992V59.5543C19.2378 63.9008 22.7528 67.4535 27.0992 67.4535H59.7543C64.1008 67.4535 67.6535 63.9008 67.6535 59.5543V49.3118H67.6913V37.1417H37.6819V49.3118H55.4457V55.2457H31.4079V31.2079H67.6535Z" fill="#698F2B"/>
</svg>
